<svg xmlns="http://www.w3.org/2000/svg" width="32" height="32" version="1"><path fill="#5dc560" fill-rule="evenodd" d="M32 16c0 8.795-7.205 16-16 16S0 24.9 0 16C0 7.205 7.205 0 16 0s16 7.205 16 16z" clip-rule="evenodd"/><path fill="#fff" d="M11.698 7.86C8.558 7.86 6 10.42 6 13.674a5.707 5.707 0 0 0 5.698 5.698c3.14 0 5.814-2.558 5.814-5.698-.117-3.255-2.675-5.814-5.814-5.814zm-.117 2.093c.35-.116.698.233.698.582v4.418l1.28-1.279a.615.615 0 0 1 .93-.116.615.615 0 0 1-.117.93l-2.21 2.21s0 .116-.115.116l-.117.116-.116.117h-.465l-.116-.117-.117-.116-2.209-2.326c-.349-.232-.116-.814.233-.93.232-.116.465 0 .58.116L11 15.07V10.65c.116-.349.233-.581.581-.698-.116 0 0 0 0 0zm7.093 3.373v.232c0 3.837-3.14 6.86-6.976 6.86-1.977 0-3.721-.813-4.884-1.976-.465.581-.814 1.395-.814 2.21 0 1.976 1.628 3.488 3.488 3.488h11.977c2.442 0 4.535-2.093 4.535-4.652a4.665 4.665 0 0 0-4.651-4.65c-.349 0-.582.115-.93.115-.582-.58-1.163-1.162-1.745-1.627z"/></svg>