<svg xmlns="http://www.w3.org/2000/svg" width="32" height="32" version="1"><path fill="#239fdb" fill-rule="evenodd" d="M32 16c0 8.795-7.205 16-16 16S0 24.9 0 16C0 7.205 7.205 0 16 0s16 7.205 16 16z" clip-rule="evenodd"/><path fill="#fff" d="M20.07 8.442c-3.14 0-5.698 2.558-5.698 5.814a5.707 5.707 0 0 0 5.698 5.697c3.14 0 5.814-2.558 5.814-5.697 0-3.256-2.558-5.814-5.814-5.814zm-.35 2.325c.117 0 .35 0 .466.117l.116.116.117.116 2.209 2.21a.615.615 0 0 1 .116.93c-.232.232-.697.116-.93-.116l-1.395-1.396v4.419c0 .349-.35.697-.814.581a.64.64 0 0 1-.35-.581v-4.419L17.86 14.14a.888.888 0 0 1-.58.232c-.35-.116-.582-.698-.233-1.046l2.209-2.093c.116-.117.116-.233.232-.233l.233-.233c-.116 0-.116 0 0 0zm-6.278 1.86c-1.628.815-2.675 2.559-2.675 4.42-.465-.233-.814-.466-1.279-.466C7.512 16.581 6 18.21 6 20.07c0 1.977 1.628 3.488 3.488 3.488h11.977c2.442 0 4.535-2.093 4.535-4.651 0-.233 0-.465-.116-.814C24.604 19.837 22.628 21 20.302 21c-3.837 0-6.976-3.14-6.976-6.86-.117-.466 0-1.047.116-1.512z"/></svg>